<svg viewBox="704 -562 16 16" version="1.1" xmlns="http://www.w3.org/2000/svg" xmlns:xlink="http://www.w3.org/1999/xlink">
    <path d="M714,-556 L714,-560.00594 C714,-561.105486 713.104569,-562 712,-562 C710.88773,-562 710,-561.107229 710,-560.00594 L710,-556 L705.99406,-556 C704.894514,-556 704,-555.104569 704,-554 C704,-552.88773 704.892771,-552 705.99406,-552 L710,-552 L710,-547.99406 C710,-546.894514 710.895431,-546 712,-546 C713.11227,-546 714,-546.892771 714,-547.99406 L714,-552 L718.00594,-552 C719.105486,-552 720,-552.895431 720,-554 C720,-555.11227 719.107229,-556 718.00594,-556 L714,-556 Z" id="plusShape" stroke="none" fill-rule="evenodd"></path>
</svg>