<svg viewBox="1755 1982 46 69" version="1.1" xmlns="http://www.w3.org/2000/svg" xmlns:xlink="http://www.w3.org/1999/xlink">
    <path d="M1798.96344,2006.24949 C1798.9877,2006.81736 1799,2007.40074 1799,2008 C1799,2015.20286 1780.96174,2041.82869 1778,2047 C1775.53709,2042.08483 1757,2014.5057 1757,2008 C1757,2007.40074 1757.0123,2006.81736 1757.03656,2006.24949 C1757.0123,2005.83609 1757,2005.41948 1757,2005 C1757,1993.40202 1766.40202,1984 1778,1984 C1789.59798,1984 1799,1993.40202 1799,2005 C1799,2005.41948 1798.9877,2005.83609 1798.96344,2006.24949 Z M1778,2017 C1784.62742,2017 1790,2011.62742 1790,2005 C1790,1998.37258 1784.62742,1993 1778,1993 C1771.37258,1993 1766,1998.37258 1766,2005 C1766,2011.62742 1771.37258,2017 1778,2017 Z" id="svg__pointer" stroke="#FFFFFF" stroke-width="3" fill="#FFFFFF"></path>
</svg>
